<!-- error img -->
<svg t="1625811480582" class="icon" viewBox="0 0 1342 1024" version="1.1" xmlns="http://www.w3.org/2000/svg" p-id="6069" width="200" height="200"><path d="M1216.357 139.03c-10.157-11.427-24.759-17.775-39.995-18.41L743.4 103.48l-32.377 73.006 45.074 135.856-81.26 154.267 33.012 124.429 82.53 106.653 119.35-109.827c11.427-10.793 29.837-10.158 39.994 1.904l152.997 165.694c10.793 11.427 10.158 29.837-1.27 40.63-5.713 5.078-12.696 8.253-20.314 7.618l-419.63-16.506-20.95 60.31 22.854 53.962 482.48 18.41c31.742 1.27 58.405-23.49 59.04-55.231l26.663-684.36c0.635-15.236-4.444-30.472-15.236-41.265zM906.554 453.277c-47.613-1.904-84.434-41.9-82.53-88.878 1.905-47.613 41.9-84.434 88.879-82.53 46.978 1.905 84.434 41.9 82.53 88.879-1.905 46.978-41.9 84.434-88.879 82.53zM595.482 848.15l14.601-63.484-340.91 23.489c-15.871 1.27-29.203-10.158-30.472-26.029a28.12 28.12 0 0 1 6.983-20.95L498.35 471.053c5.079-6.349 12.697-9.523 20.95-9.523 7.618 0 15.236 3.174 20.95 8.888l84.433 88.243-36.186-93.957 64.754-162.52-59.04-130.142 24.124-74.911-464.704 32.377c-31.742 1.904-55.232 29.202-53.327 60.945l46.978 684.36c0.635 15.235 7.618 29.202 19.68 38.725 11.428 10.157 26.029 15.236 41.265 13.966l415.187-28.568-27.933-50.787z" p-id="6070" fill="#bfbfbf"></path></svg>
